<?xml version="1.0" encoding="utf-8"?>
<svg viewBox="325.0 126.0 173.0 173.0" width="170" height="170" xmlns="http://www.w3.org/2000/svg">
  <defs>
    <clipPath clipPathUnits="userSpaceOnUse" id="clipPath3447">
      <path style="fill:#d7f4d7;fill-opacity:1;stroke:#87de87;stroke-width:11.44029999;stroke-linecap:round;stroke-linejoin:round;stroke-miterlimit:4;stroke-opacity:1;stroke-dasharray:none" id="use3449" d="m 217.68127,-211.35745 c 0,189.896185 -153.941272,343.83746 -343.83746,343.83746 -189.89619,0 -343.83746,-153.941275 -343.83746,-343.83746 0,-189.89619 153.94127,-343.83747 343.83746,-343.83747 189.896188,0 343.83746,153.94128 343.83746,343.83747 z" transform="matrix(0.8741010427474976, 0, 0, 0.8741010427474976, 467.7153091430664, 442.14752197265625)"/>
    </clipPath>
  </defs>
  <g transform="matrix(0.283393, 0, 0, 0.283393, 310.103424, 139.761902)" id="g3479">
    <path transform="matrix(0.874101,0,0,0.874101,467.716,442.147)" d="m 217.68127,-211.35745 c 0,189.896185 -153.941272,343.83746 -343.83746,343.83746 -189.89619,0 -343.83746,-153.941275 -343.83746,-343.83746 0,-189.89619 153.94127,-343.83747 343.83746,-343.83747 189.896188,0 343.83746,153.94128 343.83746,343.83747 z" id="use3422" style="fill:#fff6d5;fill-opacity:1;stroke:#ffdd55;stroke-width:11.44029999;stroke-linecap:round;stroke-linejoin:round;stroke-miterlimit:4;stroke-opacity:1;stroke-dasharray:none"/>
    <g id="g3260" clip-path="url(#clipPath3447)">
      <path id="path3240" d="M 84.76 391.24 C 84.03 391.065 85.168 391.579 122.172 371.267 C 125.837 369.255 123.514 351.192 126.923 343.439 C 131.068 334.013 159.633 248.597 162.217 240.95 C 162.913 238.892 181.562 220.214 197.323 199.768 C 213.223 179.141 223.175 160.894 231.448 157.466 C 239.571 154.1 247.409 153.958 261.176 150.182 C 272.959 146.95 282.274 141.645 286.425 139.819 C 293.846 136.556 304.291 132.917 311.538 135.747 C 318.232 138.36 315.632 144.077 316.968 150.679 C 324.026 143.161 334.748 136.004 343.557 128.418 C 352.25 120.933 359.027 113.013 366.516 106.561 C 373.487 100.556 383.602 94.013 391.773 87.046 C 399.137 80.767 404.54 74.017 411.312 69.231 C 423.689 60.483 444.083 45.603 458.824 42.081 C 469.793 39.461 479.057 43.169 484.615 56.335 C 486.395 60.55 482.795 68.964 480.543 73.303 C 500.376 59.92 502.388 52.721 512.443 49.548 C 531.616 43.496 540.718 53.346 542.308 68.552 C 543.568 80.604 531.031 92.975 520.588 103.167 C 537.79 91.007 550.937 109.337 551.81 123.529 C 552.204 129.935 547.617 135.035 543.152 141.294 C 537.318 149.474 531.738 159.124 527.376 166.29 C 517.911 181.836 520.982 174.588 486.652 220.588 C 517.497 194.813 516.412 184.608 529.412 183.937 C 538.619 183.461 541.054 190.027 543.665 198.869 C 547.018 210.222 534.427 229.617 528.054 239.593 C 516.276 258.03 496.543 279.764 482.579 296.606 C 471.429 310.055 455.274 326.917 444.57 340.724 C 434.084 354.25 424.449 375.821 411.991 387.557 C 366.222 430.673 295.596 492.822 259.955 505.656 C 245.256 510.949 227.538 518.533 213.343 524.562 C 170.699 542.674 84.76 390.561 84.76 391.24 Z" style="fill:#ffffff;fill-opacity:1;stroke:#000000;stroke-width:3.52866006;stroke-linecap:round;stroke-linejoin:round;stroke-miterlimit:4;stroke-opacity:1;stroke-dasharray:none"/>
      <path id="path3242" d="m 481.90045,71.945701 -75.28084,67.937029 c -22.21975,22.09427 -45.32202,49.4836 -65.89563,61.70098" style="fill:#ffffff;fill-opacity:0.16666703;stroke:#000000;stroke-width:3.52866006;stroke-linecap:round;stroke-linejoin:round;stroke-miterlimit:4;stroke-opacity:1;stroke-dasharray:none"/>
      <path id="path3244" d="m 521.26697,103.16742 c -23.39259,26.29618 -43.08479,50.74216 -73.03649,80.31789 -18.25659,24.34224 -48.60535,39.51436 -57.28025,58.14365" style="fill:#ffffff;fill-opacity:0.16666703;stroke:#000000;stroke-width:3.52866006;stroke-linecap:round;stroke-linejoin:round;stroke-miterlimit:4;stroke-opacity:1;stroke-dasharray:none"/>
      <path id="path3246" d="M 488.68778,218.55204 C 455.2875,262.51052 442.53334,254.86719 411.31222,310.181" style="fill:#ffffff;fill-opacity:0.16666703;stroke:#000000;stroke-width:3.52866006;stroke-linecap:round;stroke-linejoin:round;stroke-miterlimit:4;stroke-opacity:1;stroke-dasharray:none"/>
      <path id="path3248" d="M 173.75566,255.20362 C 220.74163,211.79031 268.71286,193.03345 316.96833,150 l 0,0" style="fill:#ffffff;fill-opacity:0.16666703;stroke:#000000;stroke-width:3.52866006;stroke-linecap:round;stroke-linejoin:round;stroke-miterlimit:4;stroke-opacity:1;stroke-dasharray:none"/>
    </g>
  </g>
</svg>