<?xml version="1.0" encoding="utf-8"?>
<svg viewBox="233.0 313.0 173 173" width="170" height="170" xmlns="http://www.w3.org/2000/svg" xmlns:bx="https://boxy-svg.com">
  <defs>
    <clipPath clipPathUnits="userSpaceOnUse" id="clipPath3453">
      <path style="fill:#d7f4d7;fill-opacity:1;stroke:#87de87;stroke-width:11.44029999;stroke-linecap:round;stroke-linejoin:round;stroke-miterlimit:4;stroke-opacity:1;stroke-dasharray:none" id="use3455" d="m 217.68127,-211.35745 c 0,189.896185 -153.941272,343.83746 -343.83746,343.83746 -189.89619,0 -343.83746,-153.941275 -343.83746,-343.83746 0,-189.89619 153.94127,-343.83747 343.83746,-343.83747 189.896188,0 343.83746,153.94128 343.83746,343.83747 z" transform="matrix(0.8741010427474976, 0, 0, 0.8741010427474976, -150.69669342041016, 543.5665283203125)"/>
    </clipPath>
  </defs>
  <g transform="matrix(0.283393, 0, 0, 0.283393, 394.022827, 297.470047)" id="g3488" bx:origin="0.512 0.49">
    <path d="M 35.004 358.819 C 35.004 524.808 -98.532 659.368 -273.258 659.368 C -427.983 659.368 -561.519 524.808 -561.519 358.819 C -561.519 192.831 -427.983 58.27 -263.258 58.27 C -98.532 58.27 35.004 192.831 35.004 358.819 L 35.004 358.819 Z" id="use3420" style="fill: rgb(255, 213, 213); fill-opacity: 1; stroke: rgb(255, 128, 128); stroke-width: 11.4403; stroke-linecap: round; stroke-linejoin: round; stroke-miterlimit: 4; stroke-opacity: 1; stroke-dasharray: none;"/>
    <g id="g3267" clip-path="url(#clipPath3453)">
      <path id="path2432" d="M -550.727 446.184 C -517.525 431.426 -494.343 424.894 -469.005 415.385 C -457.063 410.903 -439.386 409.441 -428.281 403.167 C -415.353 395.865 -399.088 382.747 -391.629 369.91 C -388.361 364.285 -377.893 314.641 -371.946 291.855 C -370.848 287.65 -360.399 262.534 -352.262 249.774 C -341.634 233.106 -319.964 211.999 -308.145 196.154 C -304.26 190.946 -301.2 182.422 -296.606 177.828 C -287.419 168.64 -272.182 159.147 -259.955 154.751 C -253.965 152.598 -247.514 151.648 -241.629 154.072 C -239.482 154.957 -236.461 158.472 -234.163 158.145 C -218.021 155.845 -186.03 153.375 -168.326 162.217 C -160.185 166.283 -152.408 177.01 -148.643 185.294 C -145.338 192.563 -150.075 201.793 -151.099 207.024 C -143.919 210.547 -117.309 245.248 -112.67 258.597 C -110.864 263.794 -112.913 267.188 -111.312 272.452 C -107.06 277.813 -100.183 289.093 -97.059 296.606 C -93.362 305.499 -91.385 318.366 -89.593 327.828 C -87.143 340.758 -80.279 358.503 -83.484 371.267 C -86.003 381.3 -98.737 386.74 -102.489 396.38 C -103.157 398.098 -104.601 403.877 -105.882 405.204 C -125.225 425.233 -154.943 440.94 -185.973 470.362 C -201.024 484.633 -215.691 501.106 -233.484 511.765 C -241.77 516.728 -257.951 524.054 -266.742 528.054 C -282.444 535.199 -296.759 547.88 -314.253 555.204 C -324.952 559.683 -354.397 570.157 -369.909 577.602 C -399.262 591.689 -409.097 599.942 -426.52 613.022 L -476.695 574.182 L -502.38 543.024 L -533.433 495.94 L -550.727 446.184 Z" style="fill:#ffffff;fill-opacity:1;stroke:#000000;stroke-width:3.52866006;stroke-linecap:round;stroke-linejoin:round;stroke-miterlimit:4;stroke-opacity:1;stroke-dasharray:none"/>
      <path id="path3224" d="m -150.28934,207.57783 c -4.46235,-2.42402 -12.044,-4.84805 -18.58417,-7.27207" style="fill:#ffffff;fill-opacity:0.09615383;stroke:#000000;stroke-width:3.52866006;stroke-linecap:round;stroke-linejoin:round;stroke-miterlimit:4;stroke-opacity:1;stroke-dasharray:none"/>
      <path id="path3226" d="m -219.23929,191.14835 c 4.80094,1.80035 26.00942,-5.36543 38.24567,-1.34668 12.15399,3.99173 16.85047,22.13602 23.97089,26.66424" style="fill:#ffffff;fill-opacity:0.09615383;stroke:#000000;stroke-width:3.52866006;stroke-linecap:round;stroke-linejoin:round;stroke-miterlimit:4;stroke-opacity:1;stroke-dasharray:none"/>
      <path id="path3228" d="m -168.0655,235.05008 c 6.95386,4.8677 24.22394,3.22955 32.05095,8.61874 7.82702,5.38918 10.4467,20.34523 17.23749,28.81892 l 0,0" style="fill:#ffffff;fill-opacity:0.09615383;stroke:#000000;stroke-width:3.52866006;stroke-linecap:round;stroke-linejoin:round;stroke-miterlimit:4;stroke-opacity:1;stroke-dasharray:none"/>
      <path id="path3230" d="m -110.42765,273.56509 c -5.99064,-7.3903 -10.16407,-10.2376 -14.81347,-14.2748" style="fill:#ffffff;fill-opacity:0.09615383;stroke:#000000;stroke-width:3.52866006;stroke-linecap:round;stroke-linejoin:round;stroke-miterlimit:4;stroke-opacity:1;stroke-dasharray:none"/>
      <path id="path3232" d="m -99.923554,303.73068 c -1.027796,2.05561 7.222911,12.05091 8.888075,17.50683 1.665164,5.45592 -0.551089,15.82872 0,18.58417 l 0,0" style="fill:#ffffff;fill-opacity:0.09615383;stroke:#000000;stroke-width:3.52866006;stroke-linecap:round;stroke-linejoin:round;stroke-miterlimit:4;stroke-opacity:1;stroke-dasharray:none"/>
    </g>
  </g>
</svg>