<?xml version="1.0" encoding="utf-8"?>
<svg viewBox="166.186 3.848 170.347 170.347" width="170" height="170" xmlns="http://www.w3.org/2000/svg">
  <defs>
    <clipPath clipPathUnits="userSpaceOnUse" id="clipPath3441">
      <path style="fill:#d7f4d7;fill-opacity:1;stroke:#87de87;stroke-width:11.44029999;stroke-linecap:round;stroke-linejoin:round;stroke-miterlimit:4;stroke-opacity:1;stroke-dasharray:none" id="use3443" d="m 217.68127,-211.35745 c 0,189.896185 -153.941272,343.83746 -343.83746,343.83746 -189.89619,0 -343.83746,-153.941275 -343.83746,-343.83746 0,-189.89619 153.94127,-343.83747 343.83746,-343.83747 189.896188,0 343.83746,153.94128 343.83746,343.83747 z" transform="matrix(0.8741010427474976, 0, 0, 0.8741010427474976, 1073.7612991333008, 442.14752197265625)"/>
    </clipPath>
  </defs>
  <g transform="matrix(0.283393, 0, 0, 0.283393, -21.686195, 16.076599)" id="g3472">
    <path d="M 1264.035 257.399 C 1264.035 423.388 1129.475 557.948 963.487 557.948 C 797.498 557.948 662.938 423.388 662.938 257.399 C 662.938 91.411 797.498 -43.149 963.487 -43.149 C 1129.475 -43.149 1264.035 91.411 1264.035 257.399 L 1264.035 257.399 Z" id="use3424" style="fill:#f6d5ff;fill-opacity:1;stroke:#e580ff;stroke-width:11.44029999;stroke-linecap:round;stroke-linejoin:round;stroke-miterlimit:4;stroke-opacity:1;stroke-dasharray:none"/>
    <g id="g3281" clip-path="url(#clipPath3441)">
      <path id="path3275" d="M 691.127 390.151 C 759.854 357.547 735.019 370.768 739.229 367.665 C 740.096 367.025 742.198 365.692 746.606 363.122 C 750.986 360.569 816.783 264.039 860.633 219.231 C 866.824 212.905 868.953 202.196 875.2 192.737 C 880.274 185.056 889.682 178.66 893.213 172.398 C 905.646 150.344 917.581 118.518 929.864 96.38 C 937.813 82.055 949.964 63.858 959.05 50.226 C 966.914 38.428 980.643 16.517 990.272 6.109 C 1000.743 -5.211 1022.092 -7.247 1025.566 14.932 C 1027.582 27.806 1010.251 53.804 1003.167 69.91 C 996.816 84.349 987.759 103.364 982.127 118.1 C 978.364 127.942 975.596 139.616 971.364 151.392 C 967.501 162.14 961.964 172.974 962.443 182.579 C 962.743 188.588 964.497 196.513 969.231 200.226 C 974.816 204.607 1010.839 170.008 1036.425 158.824 C 1048.92 153.362 1061.098 144.266 1084.615 133.71 C 1094.048 129.477 1105.204 121.307 1114.48 116.742 C 1123.439 112.333 1146.002 103.932 1155.882 102.489 C 1168.987 100.575 1182.422 117.162 1176.923 131.674 C 1174.963 136.846 1145.024 153.911 1131.448 163.575 C 1113.032 176.684 1086.781 192.155 1070.362 207.692 C 1049.598 227.341 1005.329 241.617 999.774 252.489 C 998.9 254.199 1001.436 257.087 1003.167 257.919 C 1006.31 259.427 1011.312 255.769 1014.706 256.561 C 1023.451 258.601 1034.084 265.94 1039.819 272.851 C 1056.42 292.854 1035.396 309.469 1031.674 319.683 C 1030.344 323.333 1041.411 329.558 1042.534 341.403 C 1043.581 352.453 1038.703 364.238 1030.996 370.588 C 1021.561 378.361 1003.532 381.564 995.701 390.95 C 993.762 393.275 994.646 398.53 992.308 400.452 C 964.936 422.953 943.021 443.245 921.719 458.824 C 900.759 474.153 861.717 497.837 850.452 496.154 C 844.071 495.2 849.547 500.31 809.696 516.108 C 798.733 520.454 770.234 487.296 739.25 461.803 C 705.785 434.269 691.127 390.151 691.127 390.151 Z" style="fill:#ffffff;fill-opacity:1;stroke:#000000;stroke-width:3.52866006;stroke-linecap:round;stroke-linejoin:round;stroke-miterlimit:4;stroke-opacity:1;stroke-dasharray:none"/>
      <path id="path3277" d="m 1032.3529,322.39819 c -6.7999,-9.80601 -20.2904,-13.71356 -21.0407,-19.00452" style="fill:#ffffff;fill-opacity:0.06089753;stroke:#000000;stroke-width:3.52866006;stroke-linecap:round;stroke-linejoin:round;stroke-miterlimit:4;stroke-opacity:1;stroke-dasharray:none"/>
      <path id="path3279" d="m 1003.8462,382.80543 9.5022,-8.1448 12.2172,-3.39366" style="fill:#ffffff;fill-opacity:0.06089753;stroke:#000000;stroke-width:3.52866006;stroke-linecap:round;stroke-linejoin:round;stroke-miterlimit:4;stroke-opacity:1;stroke-dasharray:none"/>
    </g>
  </g>
</svg>