<?xml version="1.0" encoding="utf-8"?>
<svg viewBox="14.5 132.5 173.0 173.0" width="170" height="170" xmlns="http://www.w3.org/2000/svg">
  <defs>
    <clipPath clipPathUnits="userSpaceOnUse" id="clipPath3435">
      <path style="fill:#d7f4d7;fill-opacity:1;stroke:#87de87;stroke-width:11.44029999;stroke-linecap:round;stroke-linejoin:round;stroke-miterlimit:4;stroke-opacity:1;stroke-dasharray:none" id="use3437" d="m 217.68127,-211.35745 c 0,189.896185 -153.941272,343.83746 -343.83746,343.83746 -189.89619,0 -343.83746,-153.941275 -343.83746,-343.83746 0,-189.89619 153.94127,-343.83747 343.83746,-343.83747 189.896188,0 343.83746,153.94128 343.83746,343.83747 z" transform="matrix(0.7964196927650491, 0, 0, 0.7964196927650491, 851.641044294473, -12.712806845280284)"/>
    </clipPath>
  </defs>
  <g transform="matrix(0.283393, 0, 0, 0.283393, -86.821545, 323.322464)" id="g3465">
    <path d="M 962.25 -368.435 C 962.25 -202.446 827.69 -67.886 661.702 -67.886 C 495.713 -67.886 361.153 -202.446 361.153 -368.435 C 361.153 -534.423 495.713 -668.983 661.702 -668.983 C 827.69 -668.983 962.25 -534.423 962.25 -368.435 L 962.25 -368.435 Z" id="use3418" style="fill:#d5e5ff;fill-opacity:1;stroke:#80b3ff;stroke-width:11.44029999;stroke-linecap:round;stroke-linejoin:round;stroke-miterlimit:4;stroke-opacity:1;stroke-dasharray:none"/>
    <g id="g3409" transform="matrix(1.09754,0,0,1.09754,-162.734,-169.734)" clip-path="url(#clipPath3435)">
      <path id="path3403" d="M 698.673 89.662 C 696.382 -20.431 699.754 16.65 697.93 -1.033 C 685.08 -14.27 656.146 -25.029 637.623 -45.077 C 621.298 -62.745 614.725 -87.292 599.678 -106.061 C 591.851 -115.824 576.099 -134.654 566.475 -142.652 C 558.314 -149.434 536.85 -159.823 536.661 -170.433 C 536.48 -180.559 550.349 -184.603 560.377 -186.018 C 577.796 -188.476 612.089 -170.518 618.65 -162.302 C 620.459 -160.038 645.563 -137.992 655.241 -124.356 C 665.349 -126.473 657.925 -162.84 658.629 -173.144 C 659.628 -187.758 659.984 -204.313 659.307 -207.024 C 658.629 -209.734 655.241 -228.707 654.563 -236.161 C 653.886 -243.614 648.465 -265.298 648.465 -268.686 C 648.465 -272.074 645.077 -297.145 645.077 -301.888 C 645.077 -306.631 644.997 -319.584 643.722 -329.67 C 642.469 -339.578 640.585 -361.791 642.367 -377.779 C 643.701 -389.754 658.171 -401.303 670.826 -392.009 C 676.03 -388.187 678.193 -378.636 680.99 -373.036 C 679.547 -379.648 675.686 -399.242 677.602 -410.304 C 681.376 -432.097 704.649 -431.122 710.804 -419.791 C 717.031 -408.328 720.843 -381.741 725.712 -366.26 C 731.555 -347.68 734.876 -321.597 738.586 -301.21 C 746.093 -285.979 749.41 -262.296 757.559 -248.357 C 759.865 -244.414 764.52 -239.926 769.078 -240.226 C 773.831 -240.539 773.821 -240.226 781.275 -255.133 C 788.729 -270.041 787.731 -268.081 791.439 -274.106 C 796.86 -282.915 799.57 -292.402 803.636 -298.5 C 805.891 -301.883 813.139 -318.454 816.51 -328.314 C 819.402 -336.771 822.833 -345.479 825.319 -354.063 C 829.009 -366.805 833.503 -382.312 838.193 -394.719 C 844.716 -411.974 863.029 -412.377 871.396 -395.397 C 877.572 -382.864 869.219 -363.756 866.653 -347.287 C 875.095 -359.053 890.981 -348.322 893.079 -339.834 C 895.665 -329.373 893.948 -314.585 892.402 -303.921 C 891.524 -297.869 888.285 -290.245 886.981 -284.27 C 885.355 -276.826 883.578 -268.58 881.56 -261.232 C 879.651 -254.279 876.185 -243.742 874.106 -236.838 C 871.29 -227.485 869.647 -214.48 867.33 -204.991 C 865.88 -199.05 862.773 -191.395 861.909 -185.341 C 859.872 -171.051 861.46 -151.663 861.232 -137.231 C 861.049 -125.643 861.042 -110.186 860.554 -98.607 C 859.655 -77.235 859.372 -48.553 855.811 -27.459 C 854.021 -16.858 847.68 -3.567 846.325 7.098 C 841.224 47.233 848.748 72.82 848.991 76.929 C 849.116 79.047 808.956 90.639 770.581 94.306 C 734.494 97.753 698.112 90.222 698.673 89.662 Z" style="fill:#ffffff;fill-opacity:1;stroke:#000000;stroke-width:3.21507001;stroke-linecap:round;stroke-linejoin:round;stroke-miterlimit:4;stroke-opacity:1;stroke-dasharray:none"/>
      <path id="path3405" d="m 680.98982,-374.3914 c 5.57059,30.74682 15.77293,74.51506 27.78167,146.36199 l 0,0" style="fill:#ffffff;fill-opacity:0.13461501;stroke:#000000;stroke-width:3.21507001;stroke-linecap:round;stroke-linejoin:round;stroke-miterlimit:4;stroke-opacity:1;stroke-dasharray:none"/>
      <path id="path3407" d="m 866.65271,-348.64253 c -28.32186,79.72189 -16.60839,34.3942 -49.46493,135.52036" style="fill:#ffffff;fill-opacity:0.13461501;stroke:#000000;stroke-width:3.21507001;stroke-linecap:round;stroke-linejoin:round;stroke-miterlimit:4;stroke-opacity:1;stroke-dasharray:none"/>
    </g>
  </g>
</svg>